<?xml version="1.0" encoding="utf-8"?>
<!-- Generator: Adobe Illustrator 16.0.0, SVG Export Plug-In . SVG Version: 6.00 Build 0)  -->
<!DOCTYPE svg PUBLIC "-//W3C//DTD SVG 1.1//EN" "http://www.w3.org/Graphics/SVG/1.1/DTD/svg11.dtd">
<svg version="1.1" xmlns="http://www.w3.org/2000/svg" xmlns:xlink="http://www.w3.org/1999/xlink" x="0px" y="0px"
	 width="420.039px" height="307.461px" viewBox="0 0 420.039 307.461" enable-background="new 0 0 420.039 307.461"
	 xml:space="preserve">
<g id="BACKGROUND">
</g>
<g id="OBJECTS">
	<g>
		<g>
			<g>
				<path fill="#A8D2EF" d="M420.039,200.209c0,29.333-41.039,22.235-43.181,42.386c-1.993,18.729,26.384,17.824,30.4,31.246
					c7.446,24.882-37.895,31.141-50.638,32.143c-33.135,2.608-62.283,1.418-87.722-0.896c-8.067-0.58-34.337-0.052-35.364-8.681
					c-1.243-10.413,14.316-6.958,14.812-13.888c0.62-8.678-25.321-8.688-39.077-7.986c-26.005,1.322-42.123-0.111-66.942,1.625
					c-13.029,0.576-54.597,2.312-53.978-16.205c0.193-5.812,10.422-8.394,11.167-12.729c1.759-10.219-30.402-9.833-38.468-9.259
					c-21.097,1.158-58.471-2.17-60.803-18.514c-3.515-24.634,31.642-27.043,43.431-27.62c26.676,0,52.117,0.008,79.417-2.314
					c6.084-0.519,12.41-0.156,11.169-7.101c-1.241-4.627-9.928-6.363-10.548-10.993c-2.482-19.095,65.533-21.944,101.133-18.666
					c38.108,3.505,59.36,5.355,43.851,20.98C255.957,186.573,420.039,166.796,420.039,200.209z"/>
			</g>
			<g>
				<path fill="#E9A83F" d="M341.452,226.674c-3.257-20.266-24.752-38.842-45.253-39.026c-21.139-0.192-40.534,18.863-46.548,37.962
					c-0.452,1.439,0.262,3.323,1.637,4.011c14.343,7.213,30.59,9.449,46.51,9.361c14.007-0.078,29.809-0.621,42.02-8.294
					c1.229-0.771,1.705-1.92,1.661-3.049C341.504,227.331,341.505,227.014,341.452,226.674z"/>
				<g>
					<path fill="#B77A49" d="M272.151,208.949c0,0.552-0.572,1.121-1.123,1.121c-0.553,0-1.244-0.569-1.244-1.121
						s0.691-1.121,1.244-1.121C271.579,207.828,272.151,208.397,272.151,208.949z"/>
					<path fill="#B77A49" d="M279.378,210.073c0,0.552-0.568,1.122-1.121,1.122s-1.245-0.57-1.245-1.122s0.692-1.124,1.245-1.124
						S279.378,209.521,279.378,210.073z"/>
					<path fill="#B77A49" d="M331.863,224.681c0,0.552-0.572,1.121-1.125,1.121s-1.243-0.569-1.243-1.121s0.69-1.123,1.243-1.123
						S331.863,224.129,331.863,224.681z"/>
					<path fill="#B77A49" d="M329.495,206.351c0,0.554-0.571,1.124-1.122,1.124c-0.552,0-1.246-0.57-1.246-1.124
						c0-0.552,0.694-1.122,1.246-1.122C328.923,205.229,329.495,205.799,329.495,206.351z"/>
					<path fill="#B77A49" d="M256.688,225.506c0,0.551-0.569,1.121-1.12,1.121c-0.553,0-1.244-0.57-1.244-1.121
						c0-0.553,0.691-1.124,1.244-1.124C256.119,224.382,256.688,224.954,256.688,225.506z"/>
					<path fill="#B77A49" d="M319.544,232.005c0,0.552-0.571,1.122-1.122,1.122c-0.554,0-1.246-0.57-1.246-1.122
						s0.692-1.122,1.246-1.122C318.973,230.883,319.544,231.454,319.544,232.005z"/>
					<path fill="#B77A49" d="M279.97,226.927c0,0.551-0.57,1.121-1.12,1.121c-0.554,0-1.247-0.57-1.247-1.121
						s0.693-1.125,1.247-1.125C279.4,225.802,279.97,226.376,279.97,226.927z"/>
					<path fill="#B77A49" d="M282.225,203.099c0,0.274-0.288,0.562-0.563,0.562c-0.273,0-0.623-0.288-0.623-0.562
						c0-0.277,0.35-0.562,0.623-0.562C281.937,202.538,282.225,202.822,282.225,203.099z"/>
					<path fill="#B77A49" d="M275.351,205.792c0,0.273-0.286,0.56-0.56,0.56c-0.278,0-0.624-0.286-0.624-0.56
						c0-0.279,0.346-0.563,0.624-0.563C275.065,205.228,275.351,205.512,275.351,205.792z"/>
					<path fill="#B77A49" d="M318.954,205.229c0,0.276-0.287,0.562-0.563,0.562c-0.274,0-0.623-0.286-0.623-0.562
						c0-0.275,0.349-0.561,0.623-0.561C318.667,204.668,318.954,204.954,318.954,205.229z"/>
					<path fill="#B77A49" d="M295.506,226.365c0,0.274-0.288,0.562-0.562,0.562c-0.276,0-0.626-0.287-0.626-0.562
						c0-0.278,0.35-0.562,0.626-0.562C295.218,225.802,295.506,226.086,295.506,226.365z"/>
					<path fill="#B77A49" d="M266.317,223.558c0,0.274-0.285,0.562-0.56,0.562c-0.276,0-0.624-0.287-0.624-0.562
						c0-0.277,0.348-0.562,0.624-0.562C266.032,222.997,266.317,223.281,266.317,223.558z"/>
					<path fill="#B77A49" d="M315.75,197.175c0,0.273-0.285,0.56-0.562,0.56c-0.275,0-0.624-0.286-0.624-0.56
						c0-0.278,0.349-0.563,0.624-0.563C315.465,196.612,315.75,196.897,315.75,197.175z"/>
					<path fill="#B77A49" d="M288.352,236.356c0,0.276-0.285,0.562-0.56,0.562c-0.276,0-0.625-0.285-0.625-0.562
						c0-0.277,0.349-0.562,0.625-0.562C288.067,235.794,288.352,236.079,288.352,236.356z"/>
					<path fill="#B77A49" d="M263.474,224.12c0,0.275-0.286,0.562-0.56,0.562c-0.277,0-0.624-0.286-0.624-0.562
						c0-0.278,0.347-0.562,0.624-0.562C263.188,223.558,263.474,223.841,263.474,224.12z"/>
					<path fill="#B77A49" d="M323.095,215.717c0,0.273-0.285,0.562-0.562,0.562c-0.273,0-0.623-0.288-0.623-0.562
						c0-0.278,0.35-0.563,0.623-0.563C322.81,215.154,323.095,215.439,323.095,215.717z"/>
					<path fill="#B77A49" d="M303.754,216.28c0,0.273-0.287,0.561-0.561,0.561c-0.277,0-0.624-0.287-0.624-0.561
						c0-0.278,0.347-0.562,0.624-0.562C303.467,215.717,303.754,216.001,303.754,216.28z"/>
					<path fill="#B77A49" d="M291.821,213.317c0,0.274-0.285,0.561-0.562,0.561c-0.275,0-0.623-0.286-0.623-0.561
						c0-0.278,0.348-0.562,0.623-0.562C291.536,212.754,291.821,213.039,291.821,213.317z"/>
					<path fill="#B77A49" d="M300.199,225.802c0,0.276-0.285,0.562-0.56,0.562c-0.277,0-0.622-0.286-0.622-0.562
						c0-0.275,0.345-0.561,0.622-0.561C299.914,225.242,300.199,225.527,300.199,225.802z"/>
					<path fill="#B77A49" d="M296.099,193.383c0,0.275-0.285,0.56-0.562,0.56s-0.624-0.284-0.624-0.56
						c0-0.278,0.348-0.563,0.624-0.563S296.099,193.105,296.099,193.383z"/>
					<path fill="#B77A49" d="M280.563,194.507c0,0.273-0.286,0.561-0.562,0.561c-0.274,0-0.623-0.287-0.623-0.561
						c0-0.278,0.349-0.564,0.623-0.564C280.277,193.943,280.563,194.229,280.563,194.507z"/>
				</g>
				<g>
					<path fill="#865936" d="M333.521,152.018c-0.776-0.791-1.554-1.579-2.332-2.37c-0.276-0.281-0.674-0.371-1.01-0.111
						c-17.804,13.805-28.759,35.424-35.841,56.37c-0.099,0.286-0.043,0.666,0.237,0.842c2.683,1.663,5.535,2.444,8.479,1.197
						c0.208-0.035,0.396-0.159,0.483-0.429c0.002-0.008,0.005-0.012,0.007-0.019c0.002-0.005,0.005-0.009,0.005-0.014
						c2.339-7.205,5.182-14.265,8.237-21.192c5.207-11.812,11.467-24.891,21.623-33.268
						C333.689,152.796,333.799,152.3,333.521,152.018z"/>
					<g>
						<defs>
							<path id="SVGID_1_" d="M333.521,152.018c-0.776-0.791-1.554-1.579-2.332-2.37c-0.276-0.281-0.674-0.371-1.01-0.111
								c-17.804,13.805-28.759,35.424-35.841,56.37c-0.099,0.286-0.043,0.666,0.237,0.842c2.683,1.663,5.535,2.444,8.479,1.197
								c0.208-0.035,0.396-0.159,0.483-0.429c0.002-0.008,0.005-0.012,0.007-0.019c0.002-0.005,0.005-0.009,0.005-0.014
								c2.339-7.205,5.182-14.265,8.237-21.192c5.207-11.812,11.467-24.891,21.623-33.268
								C333.689,152.796,333.799,152.3,333.521,152.018z"/>
						</defs>
						<clipPath id="SVGID_2_">
							<use xlink:href="#SVGID_1_"  overflow="visible"/>
						</clipPath>
						<g clip-path="url(#SVGID_2_)">
							<g>
								<path fill="#946641" d="M295.152,195.749c2.484,4.629,5.326,9.036,8.374,13.313c0.215,0.303,0.662-0.059,0.447-0.358
									c-3.017-4.236-5.836-8.603-8.298-13.188C295.503,195.193,294.976,195.42,295.152,195.749L295.152,195.749z"/>
							</g>
							<g>
								<path fill="#946641" d="M297.817,190.847c2.391,5.902,6.496,10.781,9.788,16.167c0.19,0.316,0.639-0.045,0.447-0.355
									c-3.264-5.345-7.341-10.19-9.712-16.043C298.203,190.273,297.677,190.505,297.817,190.847L297.817,190.847z"/>
							</g>
							<g>
								<path fill="#946641" d="M300.436,185.04c2.763,4.183,4.927,8.7,7.348,13.083c0.177,0.32,0.701,0.091,0.522-0.232
									c-2.441-4.424-4.631-8.985-7.423-13.209C300.68,184.373,300.232,184.732,300.436,185.04L300.436,185.04z"/>
							</g>
							<g>
								<path fill="#946641" d="M304.431,180.288c2.757,3.94,5.011,8.181,7.432,12.324c0.185,0.313,0.713,0.087,0.525-0.233
									c-2.448-4.185-4.726-8.47-7.509-12.448C304.666,179.626,304.22,179.987,304.431,180.288L304.431,180.288z"/>
							</g>
							<g>
								<path fill="#946641" d="M308.203,170.259c1.797,4.998,4.188,9.722,6.666,14.409c0.171,0.327,0.7,0.096,0.523-0.23
									c-2.478-4.689-4.867-9.413-6.665-14.414C308.603,169.677,308.078,169.91,308.203,170.259L308.203,170.259z"/>
							</g>
							<g>
								<path fill="#946641" d="M313.299,162.551c1.678,5.178,4.06,10.062,6.412,14.961c0.161,0.334,0.686,0.101,0.524-0.232
									c-2.352-4.899-4.733-9.785-6.411-14.962C313.709,161.965,313.186,162.201,313.299,162.551L313.299,162.551z"/>
							</g>
							<g>
								<path fill="#946641" d="M318.011,158.264c1.27,4.246,2.379,8.53,4.178,12.595c0.147,0.337,0.673,0.106,0.524-0.233
									c-1.8-4.062-2.909-8.348-4.177-12.594C318.431,157.679,317.907,157.916,318.011,158.264L318.011,158.264z"/>
							</g>
							<g>
								<path fill="#946641" d="M321.839,153.303c1.288,3.781,2.442,7.607,3.733,11.388c0.118,0.352,0.641,0.118,0.524-0.233
									c-1.287-3.78-2.445-7.605-3.733-11.389C322.245,152.72,321.722,152.953,321.839,153.303L321.839,153.303z"/>
							</g>
							<g>
								<path fill="#946641" d="M326.723,149.228c1.03,3.055,2.054,6.113,3.015,9.192c0.109,0.354,0.634,0.118,0.523-0.232
									c-0.96-3.08-1.982-6.136-3.016-9.191C327.13,148.645,326.605,148.879,326.723,149.228L326.723,149.228z"/>
							</g>
							<g>
								<path fill="#946641" d="M290.592,204.996c6.604-0.759,12.902-2.884,19.356-4.381c0.357-0.083,0.27-0.651-0.092-0.569
									c-6.45,1.499-12.753,3.625-19.354,4.383C290.135,204.472,290.227,205.039,290.592,204.996L290.592,204.996z"/>
							</g>
							<g>
								<path fill="#946641" d="M290.324,198.806c7.498-1.736,14.711-4.377,22.005-6.809c0.35-0.118,0.114-0.642-0.235-0.526
									c-7.241,2.415-14.41,5.043-21.86,6.766C289.875,198.321,289.961,198.89,290.324,198.806L290.324,198.806z"/>
							</g>
							<g>
								<path fill="#946641" d="M293.4,191.266c7.562,0.229,14.442-2.672,21.586-4.719c0.35-0.102,0.264-0.668-0.091-0.568
									c-7.083,2.029-13.937,4.943-21.433,4.718C293.095,190.684,293.028,191.257,293.4,191.266L293.4,191.266z"/>
							</g>
							<g>
								<path fill="#946641" d="M297.429,185.163c7.176-1.384,14.239-3.215,21.341-4.929c0.356-0.088,0.271-0.654-0.089-0.566
									c-7.1,1.713-14.168,3.545-21.342,4.929C296.979,184.666,297.065,185.233,297.429,185.163L297.429,185.163z"/>
							</g>
							<g>
								<path fill="#946641" d="M299.969,179.672c7.923-2.184,15.848-4.361,23.813-6.386c0.354-0.092,0.27-0.66-0.091-0.567
									c-7.965,2.026-15.892,4.203-23.814,6.387C299.526,179.204,299.612,179.77,299.969,179.672L299.969,179.672z"/>
							</g>
							<g>
								<path fill="#946641" d="M304.855,172.133c6.178-1.081,12.328-2.318,18.486-3.518c0.36-0.068,0.275-0.638-0.091-0.565
									c-6.157,1.198-12.307,2.433-18.487,3.518C304.401,171.63,304.487,172.197,304.855,172.133L304.855,172.133z"/>
							</g>
							<g>
								<path fill="#946641" d="M309.23,165.694c6.072-1.342,12.277-1.753,18.403-2.756c0.365-0.061,0.273-0.628-0.091-0.566
									c-6.126,1.005-12.33,1.414-18.401,2.755C308.782,165.204,308.869,165.771,309.23,165.694L309.23,165.694z"/>
							</g>
							<g>
								<path fill="#946641" d="M314.734,158.812c5.514,0.005,11.008-0.474,16.516-0.668c0.369-0.013,0.274-0.579-0.092-0.565
									c-5.455,0.19-10.895,0.667-16.358,0.662C314.434,158.241,314.366,158.812,314.734,158.812L314.734,158.812z"/>
							</g>
							<g>
								<path fill="#946641" d="M317.929,154.357c5.624,1.11,11.325,0.914,17.027,0.939c0.366,0.003,0.433-0.568,0.062-0.571
									c-5.703-0.024-11.401,0.173-17.027-0.94C317.629,153.714,317.569,154.284,317.929,154.357L317.929,154.357z"/>
							</g>
						</g>
					</g>
					<path fill="#6B4C34" d="M339.85,154.563c-0.227,2.019-2.544,3.868-4.561,3.643c-2.015-0.226-4.314-2.591-4.089-4.609
						c0.226-2.018,2.99-3.817,5.007-3.592C338.222,150.23,340.074,152.544,339.85,154.563z"/>
					<path fill="#6B4C34" d="M327.747,153.932c-0.228,2.018-2.544,3.868-4.561,3.643c-2.016-0.226-4.314-2.593-4.09-4.609
						c0.226-2.019,2.99-3.817,5.007-3.594C326.12,149.598,327.97,151.916,327.747,153.932z"/>
					<g>
						<g>
							<path fill="#7A8A44" d="M357.984,147.984c0.836,1.642,0.957,3.598,0.816,5.341c3.829,1.279,7.549,2.912,10.891,4.777
								c0.506-1.119,0.923-2.422,1.011-3.788c0,0,1.126,2.194,1.451,5.248c3.549,2.234,6.53,4.716,8.534,7.271
								c1.75-8.777,0.503-17.321-5.117-22.923c-2.31,1.062-3.538,2.288-3.538,2.288c0.289-1.315,1.083-2.55,2.032-3.623
								c-3.589-2.869-8.604-4.729-15.297-5.098c-1.241,1.244-2.521,2.804-3.628,4.701c0,0-0.17-2.095,0.294-4.709
								c-10.712,0.763-23.259,9.067-26.543,17.434c5.592-5.627,16.752-5.465,27.531-2.319
								C357.844,150.116,357.984,147.984,357.984,147.984z"/>
						</g>
						<g>
							<path fill="#6C793C" d="M353.358,143.204c-3.153-0.151-6.189,0.379-8.897,1.235c-2.714,0.86-5.121,2.037-7.176,3.306
								c-4.106,2.554-6.891,5.298-8.395,7.158c1.75-1.627,4.693-4.118,8.813-6.443c4.095-2.273,9.553-4.373,15.608-4.11
								c6.043,0.246,11.326,2.759,15.122,5.516c3.869,2.731,6.486,5.562,8.202,7.233c-1.459-1.891-3.879-4.941-7.711-7.898
								C365.177,146.222,359.703,143.46,353.358,143.204z"/>
						</g>
					</g>
					<g>
						<g>
							<path fill="#7A8A44" d="M360.682,135.662c1.59,1.281,2.499,3.087,3.03,4.781c4.829-0.045,9.676,0.283,14.19,0.95
								c0.127-1.224,0.084-2.593-0.354-3.914c0,0,2.139,1.708,3.711,4.486c4.892,0.951,9.239,2.32,12.512,4.077
								c-1.486-8.867-6.269-16.533-14.827-19.985c-2.191,1.759-3.096,3.32-3.096,3.32c-0.194-1.338,0.219-2.765,0.865-4.087
								c-5.187-1.539-11.589-1.653-19.296,0.188c-0.908,1.583-1.739,3.475-2.243,5.631c0,0-1.019-1.925-1.527-4.547
								c-11.801,4.229-22.702,16.183-23.109,25.163c4.097-7.147,16.771-10.648,30.193-11.206
								C361.366,137.721,360.682,135.662,360.682,135.662z"/>
						</g>
						<g>
							<path fill="#6C793C" d="M353.565,132.661c-3.62,0.889-6.84,2.384-9.562,4.081c-2.731,1.7-4.984,3.601-6.805,5.47
								c-3.635,3.758-5.693,7.265-6.66,9.515c1.336-2.111,3.676-5.43,7.415-8.976c3.731-3.488,9.072-7.26,16.014-8.992
								c6.927-1.744,13.887-1.102,19.264,0.262c5.45,1.314,9.523,3.132,12.123,4.148c-2.396-1.307-6.334-3.396-11.832-4.938
								C368.116,131.645,360.839,130.826,353.565,132.661z"/>
						</g>
					</g>
					<g>
						<g>
							<path fill="#7A8A44" d="M353.487,168.447c-0.165,1.682-0.999,3.116-1.923,4.234c2.201,3.383,4.159,6.938,5.729,10.408
								c0.902-0.447,1.821-1.08,2.535-1.968c0,0-0.212,2.256-1.417,4.585c1.549,3.863,2.561,7.524,2.824,10.601
								c5.43-4.947,8.553-11.683,7.074-19.228c-2.195-0.768-3.676-0.717-3.676-0.717c0.831-0.727,2-1.065,3.201-1.191
								c-1.277-4.328-4.078-8.887-8.813-13.5c-1.499,0.057-3.174,0.302-4.882,0.896c0,0,0.868-1.562,2.441-3.075
								c-8.222-6.449-21.345-8.865-27.704-5.202c6.758-0.26,14.869,7.123,21.292,16.327
								C352.377,169.833,353.487,168.447,353.487,168.447z"/>
						</g>
						<g>
							<path fill="#6C793C" d="M352.35,162.118c-2.242-2.157-4.721-3.771-7.11-4.938c-2.399-1.176-4.718-1.927-6.825-2.386
								c-4.216-0.903-7.556-0.813-9.538-0.504c2.053,0.013,5.388,0.2,9.51,1.272c4.076,1.093,9.071,3.195,13.388,7.32
								c4.317,4.108,7.007,9.291,8.486,13.676c1.55,4.415,2.133,8.083,2.603,10.361c-0.176-2.263-0.512-5.953-1.927-10.504
								C359.594,171.913,356.881,166.429,352.35,162.118z"/>
						</g>
					</g>
					<g>
						<g>
							<path fill="#7A8A44" d="M302.589,147.968c-1.074,1.303-1.506,2.907-1.646,4.351c-3.953,0.82-7.852,1.94-11.425,3.272
								c-0.313-0.955-0.515-2.053-0.388-3.186c0,0-1.45,1.74-2.254,4.237c-3.83,1.622-7.145,3.485-9.509,5.468
								c-0.319-7.337,2.256-14.301,8.651-18.57c2.092,1.014,3.1,2.103,3.1,2.103c-0.072-1.103-0.654-2.172-1.41-3.11
								c3.97-2.146,9.176-3.371,15.785-3.265c1.02,1.102,2.023,2.462,2.808,4.095c0,0,0.497-1.716,0.46-3.898
								c10.368,1.284,21.333,8.889,23.217,15.983c-4.579-4.978-15.532-5.525-26.59-3.594
								C302.389,149.732,302.589,147.968,302.589,147.968z"/>
						</g>
						<g>
							<path fill="#6C793C" d="M307.882,144.315c3.11,0.067,6,0.69,8.514,1.562c2.524,0.873,4.693,1.99,6.502,3.159
								c3.614,2.354,5.901,4.787,7.08,6.412c-1.454-1.448-3.938-3.681-7.604-5.852c-3.649-2.121-8.66-4.183-14.631-4.333
								c-5.955-0.169-11.53,1.58-15.683,3.619c-4.224,2.013-7.235,4.182-9.183,5.455c1.729-1.468,4.585-3.832,8.809-6.033
								C295.827,146.08,301.626,144.137,307.882,144.315z"/>
						</g>
					</g>
					<g>
						<g>
							<path fill="#7A8A44" d="M308.178,135.212c-1.529,1.024-2.596,2.668-3.329,4.257c-3.962-0.76-8.007-1.157-11.831-1.166
								c0.106-1.225,0.382-2.565,0.971-3.804c0,0-2.055,1.364-3.832,3.868c-4.191,0.209-8.006,0.913-11.003,2.158
								c2.774-8.51,8.048-15.349,15.688-17.478c1.496,2.055,1.962,3.726,1.962,3.726c0.395-1.288,0.308-2.753,0.008-4.152
								c4.534-0.745,9.817,0.091,15.834,3.049c0.469,1.693,0.823,3.679,0.857,5.877c0,0,1.175-1.746,2.051-4.251
								c8.965,5.912,15.836,19.298,14.6,28.202c-2.118-7.646-11.927-12.972-22.865-15.51
								C307.256,137.138,308.178,135.212,308.178,135.212z"/>
						</g>
						<g>
							<path fill="#6C793C" d="M314.556,133.313c2.821,1.411,5.208,3.362,7.148,5.436c1.947,2.08,3.469,4.284,4.638,6.395
								c2.328,4.24,3.409,7.996,3.812,10.355c-0.73-2.276-2.072-5.89-4.527-9.936c-2.456-3.99-6.188-8.494-11.593-11.228
								c-5.389-2.746-11.226-3.145-15.887-2.602c-4.709,0.488-8.378,1.672-10.693,2.287c2.198-0.931,5.803-2.406,10.592-3.106
								C302.771,130.154,308.895,130.428,314.556,133.313z"/>
						</g>
					</g>
					<g>
						<g>
							<path fill="#7A8A44" d="M325.381,125.367c-1.575-0.578-3.2-0.454-4.581-0.107c-2.121-3.434-4.506-6.719-6.97-9.62
								c0.771-0.613,1.716-1.166,2.802-1.419c0,0-2.105-0.782-4.685-0.712c-2.823-3.051-5.687-5.541-8.333-7.104
								c6.654-2.725,13.965-2.61,20.111,1.967c-0.209,2.297-0.863,3.601-0.863,3.601c0.994-0.432,1.774-1.33,2.377-2.351
								c3.352,3.011,6.284,7.485,8.477,13.716c-0.664,1.316-1.573,2.71-2.804,3.982c0,0,1.754-0.101,3.751-0.856
								c2.406,10.139-0.809,22.932-6.693,27.043c3.002-5.938-0.283-16.385-5.893-26.105
								C323.685,125.759,325.381,125.367,325.381,125.367z"/>
						</g>
						<g>
							<path fill="#6C793C" d="M330.583,129.118c1.014,2.937,1.439,5.849,1.507,8.494c0.067,2.652-0.213,5.058-0.663,7.138
								c-0.919,4.164-2.367,7.115-3.456,8.756c0.829-1.843,2.027-4.91,2.756-9.061c0.693-4.121,0.858-9.501-1.064-15.146
								c-1.908-5.636-5.447-10.281-8.768-13.499c-3.318-3.292-6.358-5.396-8.205-6.801c1.951,1.136,5.12,3.029,8.609,6.258
								C324.781,118.403,328.577,123.195,330.583,129.118z"/>
						</g>
					</g>
					<path fill="#86593D" d="M334.101,156.483c-0.226,2.02-2.543,3.869-4.56,3.644c-2.016-0.228-4.313-2.591-4.09-4.609
						c0.228-2.016,2.99-3.817,5.007-3.592C332.477,152.151,334.326,154.466,334.101,156.483z"/>
				</g>
				<g>
					<path fill="#9B693C" d="M273.467,138.189c8.517,12.638,11.157,29.213,13.05,44.036c1.109,8.693,1.946,17.461,2.17,26.228
						c-0.003,0.005,0,0.012,0,0.017c-0.002,0.009,0,0.015,0.003,0.022c0.006,0.331,0.174,0.527,0.393,0.635
						c2.859,2.353,6.282,2.426,9.806,1.463c0.369-0.103,0.554-0.508,0.542-0.856c-0.97-25.577-6.014-53.173-21.229-74.354
						c-0.284-0.396-0.755-0.428-1.157-0.207c-1.124,0.62-2.248,1.24-3.371,1.861C273.274,137.256,273.234,137.845,273.467,138.189z"
						/>
					<g>
						<defs>
							<path id="SVGID_3_" d="M273.467,138.189c8.517,12.638,11.157,29.213,13.05,44.036c1.109,8.693,1.946,17.461,2.17,26.228
								c-0.003,0.005,0,0.012,0,0.017c-0.002,0.009,0,0.015,0.003,0.022c0.006,0.331,0.174,0.527,0.393,0.635
								c2.859,2.353,6.282,2.426,9.806,1.463c0.369-0.103,0.554-0.508,0.542-0.856c-0.97-25.577-6.014-53.173-21.229-74.354
								c-0.284-0.396-0.755-0.428-1.157-0.207c-1.124,0.62-2.248,1.24-3.371,1.861C273.274,137.256,273.234,137.845,273.467,138.189
								z"/>
						</defs>
						<clipPath id="SVGID_4_">
							<use xlink:href="#SVGID_3_"  overflow="visible"/>
						</clipPath>
						<g clip-path="url(#SVGID_4_)">
							<g>
								<path fill="#B97E4D" d="M301.869,198.192c-4.278,4.32-8.887,8.273-13.675,12.019c-0.338,0.268-0.715-0.282-0.379-0.543
									c4.742-3.711,9.308-7.628,13.548-11.906C301.664,197.458,302.172,197.889,301.869,198.192L301.869,198.192z"/>
							</g>
							<g>
								<path fill="#B97E4D" d="M300.521,191.876c-4.592,5.762-10.754,9.825-16.18,14.721c-0.315,0.287-0.693-0.26-0.379-0.542
									c5.381-4.858,11.501-8.895,16.057-14.61C300.285,191.111,300.792,191.542,300.521,191.876L300.521,191.876z"/>
							</g>
							<g>
								<path fill="#B97E4D" d="M299.528,184.569c-4.444,3.733-8.329,8.036-12.457,12.101c-0.304,0.299-0.812-0.129-0.505-0.432
									c4.164-4.104,8.095-8.446,12.582-12.214C299.477,183.749,299.854,184.295,299.528,184.569L299.528,184.569z"/>
							</g>
							<g>
								<path fill="#B97E4D" d="M296.658,177.982c-4.354,3.463-8.25,7.429-12.304,11.229c-0.309,0.292-0.815-0.138-0.506-0.431
									c4.095-3.839,8.031-7.845,12.431-11.343C296.613,177.168,296.991,177.716,296.658,177.982L296.658,177.982z"/>
							</g>
							<g>
								<path fill="#B97E4D" d="M295.773,165.608c-3.639,4.959-7.848,9.412-12.143,13.801c-0.295,0.304-0.803-0.122-0.504-0.431
									c4.293-4.389,8.5-8.844,12.141-13.802C295.519,164.833,296.027,165.263,295.773,165.608L295.773,165.608z"/>
							</g>
							<g>
								<path fill="#B97E4D" d="M292.652,155.376c-3.564,5.195-7.818,9.836-12.039,14.494c-0.285,0.318-0.794-0.113-0.505-0.431
									c4.223-4.659,8.473-9.3,12.039-14.494C292.39,154.594,292.892,155.027,292.652,155.376L292.652,155.376z"/>
							</g>
							<g>
								<path fill="#B97E4D" d="M288.833,149.07c-2.806,4.294-5.445,8.686-8.777,12.604c-0.277,0.325-0.785-0.105-0.505-0.432
									c3.331-3.915,5.973-8.31,8.775-12.601C288.562,148.282,289.064,148.716,288.833,149.07L288.833,149.07z"/>
							</g>
							<g>
								<path fill="#B97E4D" d="M286.219,142.303c-2.675,3.774-5.215,7.639-7.891,11.412c-0.247,0.349-0.751-0.083-0.504-0.431
									c2.673-3.773,5.214-7.638,7.886-11.41C285.958,141.523,286.465,141.956,286.219,142.303L286.219,142.303z"/>
							</g>
							<g>
								<path fill="#B97E4D" d="M282.139,136.176c-2.149,3.05-4.291,6.108-6.369,9.208c-0.239,0.356-0.744-0.077-0.509-0.43
									c2.081-3.101,4.224-6.159,6.373-9.209C281.88,135.396,282.385,135.828,282.139,136.176L282.139,136.176z"/>
							</g>
							<g>
								<path fill="#B97E4D" d="M303.885,209.955c-7.077-3.018-13.371-7.447-20.038-11.233c-0.37-0.209-0.087-0.811,0.285-0.597
									c6.668,3.783,12.962,8.217,20.041,11.229C304.567,209.523,304.277,210.124,303.885,209.955L303.885,209.955z"/>
							</g>
							<g>
								<path fill="#B97E4D" d="M306.222,203.174c-7.752-4.394-14.89-9.697-22.179-14.798c-0.353-0.247,0.081-0.75,0.429-0.506
									c7.245,5.064,14.338,10.337,22.036,14.704C306.876,202.785,306.593,203.385,306.222,203.174L306.222,203.174z"/>
							</g>
							<g>
								<path fill="#B97E4D" d="M305.289,193.795c-8.468-2.234-15.148-7.72-22.4-12.342c-0.36-0.226-0.077-0.829,0.284-0.6
									c7.191,4.584,13.841,10.071,22.233,12.288C305.816,193.25,305.701,193.905,305.289,193.795L305.289,193.795z"/>
							</g>
							<g>
								<path fill="#B97E4D" d="M302.824,185.694c-7.506-3.896-14.748-8.256-22.062-12.492c-0.367-0.214-0.085-0.813,0.286-0.599
									c7.315,4.235,14.556,8.598,22.062,12.493C303.49,185.292,303.205,185.894,302.824,185.694L302.824,185.694z"/>
							</g>
							<g>
								<path fill="#B97E4D" d="M301.813,178.766c-8.072-5.034-16.153-10.054-24.327-14.925c-0.364-0.215-0.081-0.818,0.288-0.599
									c8.174,4.869,16.252,9.891,24.325,14.922C302.458,178.388,302.176,178.992,301.813,178.766L301.813,178.766z"/>
							</g>
							<g>
								<path fill="#B97E4D" d="M298.871,168.792c-6.501-3.234-12.918-6.629-19.36-9.983c-0.378-0.2-0.094-0.8,0.287-0.603
									c6.439,3.355,12.857,6.752,19.36,9.987C299.542,168.38,299.258,168.984,298.871,168.792L298.871,168.792z"/>
							</g>
							<g>
								<path fill="#B97E4D" d="M296.134,160.202c-6.299-3.481-13.048-5.979-19.518-9.112c-0.385-0.186-0.099-0.785,0.289-0.599
									c6.467,3.134,13.218,5.63,19.514,9.113C296.792,159.811,296.507,160.411,296.134,160.202L296.134,160.202z"/>
							</g>
							<g>
								<path fill="#B97E4D" d="M292.29,150.755c-6.124-1.809-12.06-4.146-18.109-6.174c-0.406-0.136-0.113-0.734,0.288-0.6
									c5.99,2.007,11.873,4.328,17.939,6.12C292.812,150.22,292.699,150.877,292.29,150.755L292.29,150.755z"/>
							</g>
							<g>
								<path fill="#B97E4D" d="M290.21,144.759c-6.606-0.617-12.868-2.71-19.206-4.559c-0.406-0.118-0.291-0.772,0.117-0.654
									c6.336,1.849,12.601,3.943,19.205,4.562C290.753,144.146,290.632,144.798,290.21,144.759L290.21,144.759z"/>
							</g>
						</g>
					</g>
					<path fill="#6B4C34" d="M265.817,137.779c-0.413,2.312,1.546,5.127,3.859,5.54c2.312,0.414,5.642-1.456,6.055-3.768
						c0.414-2.313-2.061-5.222-4.373-5.635C269.047,133.503,266.229,135.465,265.817,137.779z"/>
					<path fill="#6B4C34" d="M279.457,141.06c-0.414,2.312,1.548,5.13,3.86,5.542c2.312,0.413,5.642-1.455,6.057-3.769
						c0.411-2.313-2.062-5.222-4.375-5.636C282.687,136.785,279.869,138.747,279.457,141.06z"/>
					<g>
						<g>
							<path fill="#9CB560" d="M247.855,124.506c-1.466,1.55-2.246,3.679-2.664,5.66c-4.668,0.159-9.335,0.75-13.657,1.721
								c-0.193-1.41-0.227-2.995,0.123-4.541c0,0-1.969,2.067-3.335,5.349c-4.677,1.313-8.799,3.087-11.863,5.263
								c0.945-10.317,5.141-19.391,13.221-23.757c2.213,1.938,3.174,3.704,3.174,3.704c0.112-1.557-0.363-3.188-1.062-4.69
								c4.926-2.004,11.104-2.419,18.654-0.624c0.965,1.79,1.875,3.941,2.48,6.413c0,0,0.875-2.273,1.219-5.325
								c11.64,4.372,22.832,17.715,23.724,28.082c-4.355-8.085-16.793-11.578-29.795-11.635
								C247.309,126.919,247.855,124.506,247.855,124.506z"/>
						</g>
						<g>
							<path fill="#8A9C4E" d="M254.566,120.726c3.543,0.87,6.741,2.456,9.462,4.299c2.732,1.847,5.018,3.945,6.876,6.028
								c3.719,4.185,5.905,8.147,6.964,10.708c-1.408-2.382-3.854-6.115-7.662-10.054c-3.799-3.87-9.166-7.994-15.968-9.695
								c-6.789-1.715-13.479-0.663-18.599,1.145c-5.191,1.76-9.027,4.038-11.482,5.327c2.24-1.615,5.93-4.205,11.157-6.226
								C240.451,120.184,247.437,118.922,254.566,120.726z"/>
						</g>
					</g>
					<g>
						<g>
							<path fill="#9CB560" d="M248.916,109.947c-2.187,0.897-3.79,2.603-4.936,4.307c-5.345-1.638-10.831-2.868-16.061-3.613
								c0.262-1.399,0.761-2.904,1.679-4.228c0,0-2.936,1.191-5.594,3.757c-5.74-0.554-11.019-0.464-15.227,0.409
								c4.565-9.352,12.394-16.286,23.03-17.302c1.855,2.673,2.343,4.704,2.343,4.704c0.656-1.422,0.667-3.141,0.387-4.821
								c6.26-0.001,13.404,1.977,21.35,6.559c0.488,2.057,0.788,4.43,0.636,6.989c0,0,1.767-1.803,3.193-4.545
								c11.705,8.576,19.867,25.427,17.369,35.531c-2.197-9.28-15.109-17.337-29.824-22.372
								C247.478,112.008,248.916,109.947,248.916,109.947z"/>
						</g>
						<g>
							<path fill="#8A9C4E" d="M257.801,108.957c3.726,2.178,6.809,4.897,9.269,7.675c2.472,2.784,4.349,5.636,5.752,8.311
								c2.795,5.366,3.928,9.935,4.264,12.75c-0.791-2.782-2.294-7.234-5.276-12.401c-2.994-5.1-7.679-11.041-14.817-15.248
								c-7.109-4.216-15.048-5.793-21.462-6.048c-6.479-0.334-11.599,0.341-14.819,0.614c3.088-0.662,8.147-1.687,14.757-1.587
								C241.989,103.04,250.332,104.528,257.801,108.957z"/>
						</g>
					</g>
					<g>
						<g>
							<path fill="#9CB560" d="M246.115,148.698c-0.372,1.921,0.079,3.786,0.74,5.333c-3.56,3.027-6.899,6.33-9.784,9.664
								c-0.854-0.793-1.667-1.797-2.166-3.015c0,0-0.504,2.571,0.064,5.551c-2.989,3.777-5.32,7.509-6.624,10.835
								c-4.399-7.274-5.645-15.777-1.523-23.663c2.691-0.133,4.315,0.412,4.315,0.412c-0.683-1.08-1.867-1.84-3.159-2.375
								c2.842-4.384,7.451-8.519,14.224-12.084c1.643,0.557,3.423,1.381,5.123,2.601c0,0-0.449-2.02-1.697-4.212
								c11.241-4.457,26.603-2.818,32.457,3.341c-7.415-2.513-18.846,3.013-29.002,11.115
								C246.887,150.602,246.115,148.698,246.115,148.698z"/>
						</g>
						<g>
							<path fill="#8A9C4E" d="M249.458,142.049c3.196-1.659,6.476-2.634,9.515-3.142c3.048-0.514,5.87-0.585,8.356-0.4
								c4.979,0.383,8.655,1.583,10.755,2.578c-2.282-0.663-6.048-1.551-10.974-1.717c-4.885-0.131-11.12,0.558-17.265,3.718
								c-6.142,3.141-10.835,8.006-13.92,12.384c-3.171,4.39-5.027,8.267-6.296,10.642c0.939-2.452,2.527-6.438,5.595-11.021
								C238.194,150.535,243.009,145.342,249.458,142.049z"/>
						</g>
					</g>
					<g>
						<g>
							<path fill="#9CB560" d="M309.333,142.719c0.766,1.801,0.719,3.722,0.397,5.371c4.118,2.209,8.078,4.734,11.603,7.39
								c0.666-0.958,1.248-2.11,1.479-3.407c0,0,1.036,2.41,1.109,5.443c3.715,3.063,6.776,6.219,8.753,9.198
								c2.768-8.039,2.199-16.612-3.495-23.457c-2.654,0.438-4.127,1.312-4.127,1.312c0.441-1.198,1.438-2.19,2.587-2.985
								c-3.701-3.688-9.074-6.762-16.446-8.819c-1.492,0.889-3.055,2.068-4.46,3.622c0,0,0.011-2.069,0.772-4.476
								c-11.929-1.988-26.601,2.844-31.027,10.097c6.722-4.017,19.058-1.022,30.692,4.76
								C308.976,144.744,309.333,142.719,309.333,142.719z"/>
						</g>
						<g>
							<path fill="#8A9C4E" d="M304.666,136.923c-3.476-0.948-6.886-1.209-9.965-1.069c-3.088,0.138-5.862,0.665-8.255,1.367
								c-4.783,1.424-8.125,3.369-9.967,4.786c2.092-1.128,5.583-2.789,10.365-3.99c4.749-1.154,10.987-1.795,17.661,0.002
								c6.665,1.775,12.278,5.549,16.214,9.178c4.023,3.625,6.655,7.024,8.396,9.076c-1.438-2.197-3.826-5.759-7.791-9.595
								C317.461,142.847,311.666,138.786,304.666,136.923z"/>
						</g>
					</g>
					<g>
						<g>
							<path fill="#9CB560" d="M307.332,126.724c1.359,1.641,2.002,3.813,2.294,5.818c4.646,0.46,9.266,1.351,13.515,2.598
								c0.283-1.392,0.421-2.973,0.173-4.537c0,0,1.83,2.188,2.982,5.552c4.579,1.614,8.579,3.648,11.498,6.016
								c-0.279-10.355-3.878-19.681-11.658-24.559c-2.336,1.789-3.409,3.49-3.409,3.49c-0.008-1.559,0.57-3.159,1.363-4.609
								c-4.788-2.32-10.926-3.132-18.576-1.83c-1.077,1.727-2.122,3.813-2.883,6.242c0,0-0.732-2.324-0.88-5.395
								c-11.894,3.613-23.925,16.208-25.481,26.495c4.866-7.785,17.504-10.473,30.479-9.688
								C307.72,129.165,307.332,126.724,307.332,126.724z"/>
						</g>
						<g>
							<path fill="#8A9C4E" d="M300.879,122.519c-3.597,0.636-6.888,2.016-9.726,3.678c-2.843,1.668-5.259,3.616-7.249,5.573
								c-3.977,3.938-6.414,7.748-7.636,10.235c1.559-2.289,4.236-5.854,8.292-9.539c4.037-3.617,9.662-7.388,16.562-8.645
								c6.881-1.274,13.492,0.205,18.483,2.344c5.069,2.09,8.749,4.61,11.116,6.057c-2.133-1.757-5.647-4.579-10.732-6.934
								C314.996,122.888,308.11,121.178,300.879,122.519z"/>
						</g>
					</g>
					<g>
						<g>
							<path fill="#9CB560" d="M291.479,110.134c1.938-0.122,3.701,0.55,5.118,1.39c3.486-3.111,7.215-5.973,10.902-8.384
								c-0.653-0.933-1.521-1.856-2.644-2.496c0,0,2.596-0.175,5.433,0.752c4.138-2.457,8.135-4.279,11.588-5.143
								c-6.489-5.214-14.639-7.491-22.97-4.435c-0.522,2.62-0.226,4.281-0.226,4.281c-0.959-0.805-1.527-2.06-1.864-3.391
								c-4.709,2.238-9.438,6.239-13.919,12.432c0.304,1.68,0.854,3.523,1.801,5.343c0,0-1.914-0.688-3.883-2.187
								c-6.004,10.462-6.646,25.718-1.469,32.216c-1.378-7.577,5.709-18.09,15.131-27.033
								C293.233,111.131,291.479,110.134,291.479,110.134z"/>
						</g>
						<g>
							<path fill="#8A9C4E" d="M284.473,112.587c-2.092,2.926-3.521,6.018-4.467,8.933c-0.949,2.919-1.429,5.679-1.613,8.136
								c-0.351,4.927,0.288,8.675,0.954,10.856c-0.315-2.319-0.635-6.114-0.077-10.963c0.585-4.801,2.175-10.826,6.166-16.457
								c3.972-5.628,9.428-9.617,14.172-12.096c4.763-2.561,8.831-3.897,11.343-4.848c-2.539,0.619-6.677,1.678-11.612,4.111
								C294.437,102.606,288.646,106.676,284.473,112.587z"/>
						</g>
					</g>
					<path fill="#86593D" d="M271.563,141.8c-0.412,2.312,1.549,5.129,3.86,5.543c2.312,0.412,5.645-1.456,6.056-3.77
						c0.414-2.313-2.062-5.221-4.375-5.635C274.792,137.526,271.976,139.487,271.563,141.8z"/>
				</g>
			</g>
			<g>
				<g>
					<path fill="#EFFFF8" d="M261.75,241.037c-7.67-2.317-10.993-4.64-12.482-5.847c-0.726-0.638-1.083-0.967-1.235-1.149
						c-0.154-0.181-0.154-0.181-0.154-0.181c-1.88-1.894-2.196-3.965-2.1-5.26c0.006-0.667,0.152-1.152,0.207-1.491
						c0.058-0.339,0.064-0.521,0.019-0.541c-0.045-0.018-0.144,0.128-0.298,0.446c-0.148,0.32-0.398,0.799-0.502,1.516
						c-0.035,0.177-0.072,0.366-0.111,0.565c-0.001,0.205-0.002,0.421-0.003,0.647c0.008,0.226-0.017,0.471,0.024,0.718
						c0.05,0.248,0.103,0.507,0.154,0.776c0.27,1.059,0.832,2.267,1.798,3.346c0,0,0,0,0.172,0.2
						c0.17,0.201,0.556,0.561,1.339,1.247c1.598,1.3,5.087,3.702,12.858,6.047c3.878,1.166,6.845,1.803,9.068,2.271
						c2.224,0.462,3.718,0.714,4.71,0.893c1.991,0.33,1.991,0.33,1.991,0.33c5.491,0.709,8.268,0.744,8.285,0.562
						c0.022-0.208-2.706-0.636-8.114-1.635c0,0,0,0-1.977-0.328c-0.986-0.176-2.47-0.427-4.677-0.887
						C268.52,242.82,265.578,242.187,261.75,241.037z"/>
				</g>
				<g>
					<path fill="#EFFFF8" d="M322.455,243.831c-9.653,2.078-14.639,2.181-17.086,2.358c-2.465,0.116-2.465,0.116-2.465,0.116
						c-6.758,0.295-10.147-0.062-10.173,0.188c-0.011,0.098,0.825,0.267,2.521,0.501c1.698,0.213,4.261,0.388,7.684,0.396
						c0,0,0,0,2.49-0.115c2.477-0.18,7.509-0.282,17.271-2.385c9.724-2.311,14.233-4.699,16.458-5.81
						c2.204-1.199,2.204-1.199,2.204-1.199c2.892-1.886,4.85-3.605,5.99-4.893c1.108-1.326,1.611-2.011,1.534-2.074
						c-0.241-0.229-2.251,2.654-8.08,6.032c0,0,0,0-2.152,1.171C336.476,239.202,332.064,241.546,322.455,243.831z"/>
				</g>
				<g>
					<path fill="#EFFFF8" d="M332.387,246.941c-3.394,1.297-5.192,1.575-6.075,1.718c-0.887,0.152-0.888,0.13-0.889,0.13
						c-2.423,0.418-3.688,0.371-3.711,0.604c-0.028,0.156,1.238,0.61,3.841,0.476c0,0,0.004,0.023,0.932-0.137
						c0.926-0.148,2.81-0.443,6.299-1.777c3.461-1.398,5.057-2.374,5.874-2.816c0.806-0.463,0.806-0.463,0.806-0.463
						c2.115-1.442,3.006-2.381,2.897-2.528c-0.122-0.172-1.235,0.438-3.451,1.594c0,0,0,0-0.789,0.451
						C337.324,244.623,335.757,245.581,332.387,246.941z"/>
				</g>
				<g>
					<path fill="#EFFFF8" d="M268.625,250.093c-1.332-0.223-2.322-0.419-3.056-0.598c-0.743-0.151-1.225-0.293-1.546-0.387
						c-0.646-0.182-0.646-0.182-0.646-0.182c-1.797-0.391-2.725-0.58-2.806-0.378c-0.067,0.162,0.723,0.725,2.498,1.42
						c0,0,0,0,0.666,0.188c0.331,0.096,0.831,0.242,1.591,0.399c0.756,0.182,1.768,0.383,3.124,0.609
						c2.713,0.42,4.069,0.553,4.746,0.641c0.677,0.08,0.677,0.08,0.677,0.08c3.733,0.151,3.808-0.332,0.127-1.08
						c0,0,0,0-0.675-0.079C272.651,250.638,271.296,250.506,268.625,250.093z"/>
				</g>
				<g>
					<path fill="#EFFFF8" d="M347.18,223.783c-1.015-1.045-1.015-1.045-1.015-1.045c-0.911-0.507-1.246-0.151-0.779,0.758
						c0,0,0,0,0.994,1.023c0.875,1.075,0.875,1.075,0.875,1.075c0.835,0.556,1.275,0.332,0.871-0.651
						C348.126,224.943,348.126,224.943,347.18,223.783z"/>
				</g>
				<g>
					<path fill="#EFFFF8" d="M63.172,216.528c-0.465-0.07-0.913-0.156-1.352-0.206c-0.445-0.024-0.876-0.051-1.293-0.074
						c-0.851,0.077-1.654,0.125-2.349,0.37c-1.421,0.388-2.494,0.982-3.415,1.435c-0.906,0.479-1.659,0.831-2.285,1.118
						c-0.638,0.216-1.135,0.459-1.558,0.516c-0.417,0.082-0.73,0.143-0.965,0.188c-0.235,0.014-0.392,0.022-0.497,0.028
						c-0.209,0.012-0.209,0.012-0.209,0.012c-2.329,0.014-4.143-0.673-5.332-0.961c-1.2-0.337-1.83-0.443-1.857-0.352
						c-0.03,0.096,0.522,0.384,1.663,0.896c0.573,0.253,1.298,0.555,2.201,0.859c0.905,0.29,1.998,0.602,3.335,0.646
						c0,0,0,0,0.245-0.014c0.122-0.008,0.305-0.019,0.58-0.034c0.267-0.052,0.623-0.12,1.097-0.213
						c0.481-0.071,1.022-0.328,1.723-0.57c0.664-0.304,1.454-0.676,2.354-1.15c1.807-0.891,4.188-2.264,7.704-1.426
						c1.234,0.259,2.469,0.622,3.74,0.962c1.279,0.329,2.614,0.558,3.978,0.589l-0.039-0.001c2.275,0.162,4.543,0.101,6.768,0.135
						c4.927-0.075,7.335,0.68,7.4,0.41c0.025-0.095-0.557-0.33-1.766-0.7c-1.215-0.309-3.096-0.703-5.614-0.796
						c-2.269-0.035-4.499,0.025-6.71-0.133h-0.009l-0.03-0.001c-1.235-0.031-2.47-0.237-3.706-0.556
						C65.736,217.174,64.479,216.801,63.172,216.528z"/>
				</g>
				<g>
					<path fill="#EFFFF8" d="M195.193,169.476c-1.996-0.213-3.678,0.095-5.12,0.391c-1.434,0.331-2.636,0.691-3.646,1.007
						c-2.024,0.643-3.358,0.965-4.256,1.128c-0.897,0.122-1.344,0.166-1.567,0.151c-0.223,0.004-0.223,0.004-0.223,0.004
						c-0.615,0.065-1.177-0.047-1.713-0.069c-0.513-0.139-1.018-0.188-1.446-0.366c-0.425-0.18-0.845-0.286-1.185-0.481
						c-0.347-0.184-0.658-0.351-0.936-0.499c-1.064-0.679-1.61-1.045-1.683-0.962c-0.059,0.063,0.352,0.575,1.356,1.438
						c0.272,0.192,0.578,0.409,0.917,0.648c0.34,0.245,0.778,0.411,1.228,0.645c0.453,0.235,1.002,0.34,1.568,0.529
						c0.587,0.075,1.223,0.232,1.904,0.203c0,0,0,0,0.248-0.003c0.252,0.012,0.741-0.033,1.714-0.166
						c0.957-0.173,2.373-0.52,4.393-1.16c1.014-0.317,2.184-0.666,3.562-0.985c1.367-0.286,3.002-0.565,4.75-0.374
						c1.741,0.257,3.239,0.965,4.567,1.512c1.332,0.57,2.532,1.015,3.612,1.266c1.08,0.236,2.019,0.331,2.799,0.307
						c0.777-0.045,1.391-0.134,1.867-0.238c0.958-0.198,1.409-0.348,1.64-0.408c0.23-0.065,0.23-0.065,0.23-0.065
						c1.236-0.405,2.281-0.754,3.2-0.933c0.913-0.178,1.69-0.229,2.312-0.186c1.245,0.082,1.873,0.292,1.913,0.171
						c0.028-0.061-0.524-0.465-1.842-0.745c-0.657-0.141-1.511-0.183-2.513-0.076c-1.003,0.105-2.135,0.397-3.375,0.725
						c0,0,0,0-0.223,0.064c-0.224,0.059-0.671,0.203-1.559,0.389c-0.888,0.184-2.224,0.398-4.204-0.062
						c-0.988-0.229-2.116-0.644-3.436-1.208C198.717,170.525,197.191,169.776,195.193,169.476z"/>
				</g>
				<g>
					<path fill="#EFFFF8" d="M149.406,210.094c-3.399,0.896-5.879,0.688-7.861,0.449c-1.958-0.165-3.292-0.356-4.195-0.288
						c-1.8,0.022-1.8,0.036-1.8,0.036c-0.611,0.101-1.185,0.195-1.72,0.285c-0.526,0.116-0.998,0.274-1.44,0.396
						c-0.881,0.255-1.573,0.526-2.144,0.728c-1.128,0.373-1.691,0.612-1.672,0.709s0.623,0.05,1.827-0.151
						c0.588-0.109,1.327-0.3,2.198-0.465c0.437-0.076,0.904-0.19,1.41-0.263c0.507-0.048,1.05-0.101,1.629-0.155
						c0,0-0.001-0.01,1.703-0.031c0.853-0.069,2.131,0.115,4.099,0.282c1.906,0.247,4.794,0.448,8.204-0.472
						c1.702-0.4,3.158-0.622,4.453-0.624c1.277,0.003,2.431,0.196,3.398,0.296c1.941,0.21,3.248,0.422,4.115,0.533
						c1.739,0.232,1.739,0.232,1.739,0.232c1.205,0.094,2.259,0.174,3.164,0.244c0.908,0.026,1.67-0.002,2.274-0.014
						c1.211-0.036,1.811-0.106,1.811-0.205s-0.6-0.226-1.788-0.374c-0.593-0.066-1.333-0.15-2.222-0.25
						c-0.886-0.137-1.919-0.297-3.1-0.479c0,0,0,0-1.734-0.23c-0.871-0.114-2.16-0.322-4.137-0.538
						c-0.991-0.101-2.113-0.296-3.523-0.303C152.702,209.443,151.113,209.69,149.406,210.094z"/>
				</g>
				<g>
					<path fill="#EFFFF8" d="M204.58,240.603c-1.689-0.113-3.191,0.008-4.459,0.191c-1.274,0.179-2.349,0.388-3.262,0.562
						c-1.826,0.352-3.03,0.567-3.835,0.649c-0.805,0.111-1.206,0.105-1.406,0.129c-0.202,0.013-0.202,0.013-0.202,0.013
						c-2.196,0.184-3.843-0.09-4.92-0.353c-1.075-0.274-1.628-0.438-1.674-0.338c-0.037,0.076,0.432,0.421,1.497,0.89
						c1.062,0.452,2.806,0.929,5.148,0.887c0,0,0,0,0.211-0.015c0.21-0.022,0.642-0.019,1.476-0.135
						c0.84-0.085,2.082-0.308,3.909-0.66c1.824-0.312,4.237-0.932,7.454-0.735c1.615,0.083,2.968,0.381,4.174,0.73
						c1.202,0.35,2.257,0.668,3.183,0.895c1.862,0.478,3.2,0.414,4.04,0.416c0.846-0.058,1.273-0.078,1.479-0.111
						c0.209-0.024,0.209-0.024,0.209-0.024c2.277-0.364,3.895-0.722,5.008-0.771c1.105-0.082,1.677-0.045,1.695-0.164
						c0.018-0.072-0.53-0.31-1.691-0.414c-1.163-0.14-2.914,0.062-5.134,0.269c0,0-0.004,0.034-1.606,0.131
						c-0.804-0.009-1.989,0.062-3.749-0.389c-0.884-0.216-1.906-0.523-3.137-0.882C207.762,241.016,206.274,240.69,204.58,240.603z"
						/>
				</g>
				<g>
					<path fill="#EFFFF8" d="M228.47,203.683c-4.449,0.631-6.64,0.789-7.744,0.781c-1.101,0.028-1.098,0.002-1.098,0.002
						c-3.009,0.046-4.524-0.271-4.58-0.033c-0.047,0.141,1.404,0.859,4.554,1.119c0,0,0.002,0.028,1.144-0.001
						c1.142,0.009,3.435-0.161,7.866-0.792c4.431-0.617,6.632-0.545,7.734-0.539c1.099,0.066,1.099,0.066,1.099,0.066
						c3.018,0.085,4.537,0.383,4.592,0.146c0.043-0.144-1.397-0.837-4.517-1.231c0,0,0,0-1.141-0.067
						C235.248,203.125,232.933,203.059,228.47,203.683z"/>
				</g>
				<g>
					<path fill="#EFFFF8" d="M379.119,204.253c-4.035,0.927-6.035,0.787-7.025,0.682c-0.498-0.038-0.736-0.123-0.86-0.134
						c-0.122-0.023-0.122-0.023-0.122-0.023c-0.686-0.057-1.265-0.222-1.77-0.336c-0.516-0.093-0.923-0.246-1.261-0.348
						c-0.673-0.202-1.043-0.261-1.088-0.173c-0.047,0.087,0.232,0.32,0.857,0.703c0.312,0.191,0.702,0.436,1.222,0.62
						c0.512,0.205,1.109,0.46,1.839,0.603c0,0,0,0,0.133,0.023c0.134,0.014,0.396,0.102,0.933,0.145
						c1.057,0.123,3.294,0.245,7.371-0.699c4.047-0.956,6.048-0.982,7.06-0.998c1.003,0.055,1.003,0.055,1.003,0.055
						c0.694-0.024,1.29,0.074,1.812,0.108c0.523,0.021,0.951,0.115,1.3,0.161c0.698,0.096,1.073,0.097,1.104,0.004
						c0.031-0.093-0.28-0.28-0.954-0.563c-0.338-0.138-0.76-0.323-1.296-0.435c-0.533-0.123-1.156-0.306-1.89-0.359
						c0,0,0,0-1.069-0.057C385.361,203.24,383.165,203.295,379.119,204.253z"/>
				</g>
				<g>
					<path fill="#EFFFF8" d="M303.212,286.12c-3.403,0.075-5.79,0.812-7.564,1.251c-0.881,0.214-1.615,0.392-2.227,0.539
						c-0.61,0.097-1.101,0.174-1.491,0.236c-0.781,0.148-1.178,0.064-1.373,0.1c-0.195,0.005-0.195,0.005-0.195,0.005
						c-1.079,0.133-2.022-0.025-2.84-0.068c-0.826-0.011-1.486-0.231-2.034-0.309c-1.088-0.197-1.659-0.248-1.689-0.154
						c-0.032,0.093,0.477,0.332,1.545,0.716c0.541,0.17,1.194,0.48,2.051,0.583c0.846,0.134,1.834,0.378,2.995,0.318
						c0,0,0,0,0.212-0.006c0.206-0.035,0.641,0.05,1.466-0.106c0.413-0.066,0.931-0.147,1.577-0.25
						c0.625-0.151,1.376-0.333,2.277-0.552c1.761-0.444,4.137-1.145,7.248-1.217c1.545,0.049,2.786,0.549,3.936,1.056
						c1.156,0.523,2.266,0.813,3.176,1.004c1.825,0.338,3.031,0.634,3.863,0.664c1.646,0.156,1.646,0.156,1.646,0.156
						c2.263,0.062,3.945-0.024,5.062-0.123c1.118-0.095,1.676-0.194,1.675-0.293c0-0.099-0.559-0.195-1.674-0.285
						c-1.117-0.088-2.789-0.175-4.986-0.383c0,0,0,0-1.597-0.153c-0.805-0.025-1.981-0.317-3.759-0.644
						c-0.883-0.189-1.855-0.435-2.979-0.943C306.415,286.766,304.948,286.168,303.212,286.12z"/>
				</g>
				<g>
					<path fill="#EFFFF8" d="M352.659,271.172c-2.466,0.312-4.272,0.814-5.6,1.114c-1.337,0.32-2.218,0.472-2.812,0.575
						c-1.187,0.151-1.187,0.151-1.187,0.151c-1.621,0.229-2.862,0.304-3.695,0.318c-0.834,0.042-1.263,0.114-1.273,0.211
						c-0.011,0.098,0.397,0.222,1.239,0.367c0.839,0.17,2.125,0.271,3.844,0.184c0,0,0,0,1.243-0.158
						c0.611-0.105,1.544-0.268,2.886-0.591c1.356-0.306,3.104-0.791,5.5-1.095c2.398-0.34,4.14-0.234,5.5-0.026
						c1.346,0.177,2.243,0.344,2.846,0.45c1.203,0.217,1.203,0.217,1.203,0.217c3.348,0.476,5.084,0.337,5.083,0.156
						c0.004-0.215-1.632-0.463-4.89-1.226c0,0,0,0-1.206-0.218c-0.604-0.105-1.513-0.276-2.898-0.458
						C357.082,270.931,355.116,270.817,352.659,271.172z"/>
				</g>
				<g>
					<path fill="#EFFFF8" d="M141.49,256.164c-4.896,0.829-7.34,0.76-8.538,0.603c-0.606-0.034-0.903-0.084-1.05-0.121
						c-0.148-0.026-0.148-0.026-0.148-0.026c-0.411-0.056-0.796-0.106-1.156-0.155c-0.356-0.066-0.678-0.161-0.983-0.229
						c-0.306-0.069-0.586-0.135-0.841-0.192c-0.247-0.083-0.47-0.159-0.668-0.226c-0.799-0.264-1.234-0.354-1.281-0.267
						c-0.046,0.086,0.295,0.352,1.05,0.798c0.19,0.109,0.401,0.241,0.646,0.362c0.255,0.102,0.536,0.213,0.842,0.332
						c0.309,0.112,0.641,0.254,1.01,0.366c0.375,0.087,0.777,0.182,1.207,0.282c0,0,0,0,0.158,0.029
						c0.158,0.038,0.475,0.091,1.115,0.128c1.267,0.166,3.874,0.227,8.812-0.613c4.917-0.867,7.349-1.096,8.574-1.099
						c0.611-0.039,0.915-0.018,1.067-0.015c0.152,0.007,0.152,0.007,0.152,0.007c3.341-0.067,5.006,0.399,5.072,0.146
						c0.053-0.118-1.545-0.992-5.055-1.233c0,0,0,0-0.159-0.004c-0.16-0.004-0.479-0.026-1.112,0.014
						C148.936,255.052,146.39,255.298,141.49,256.164z"/>
				</g>
			</g>
		</g>
		<path fill="#A8D2EF" d="M222.305,295.447c-0.064-7.804-14.84-9.694-26.84-7.441s-7.333,16.253,9,15.92
			C220.799,303.592,222.339,299.592,222.305,295.447z"/>
		<path fill="#A8D2EF" d="M413.132,244.926c-0.043-7.804-9.947-9.694-17.99-7.441s-4.916,16.253,6.032,15.92
			S413.155,249.072,413.132,244.926z"/>
		<path fill="#A8D2EF" d="M114.768,169.216c-0.072-7.804-16.651-9.694-30.115-7.441c-13.463,2.253-8.229,16.253,10.098,15.92
			S114.806,173.362,114.768,169.216z"/>
	</g>
</g>
<g id="DESIGNED_BY_FREEPIK">
</g>
</svg>
